<svg xmlns="http://www.w3.org/2000/svg" version="1.1" xmlns:xlink="http://www.w3.org/1999/xlink" xmlns:svgjs="http://svgjs.dev/svgjs" width="1240" height="560" preserveAspectRatio="none" viewBox="0 0 1240 560"><g mask="url(&quot;#SvgjsMask1362&quot;)" fill="none"><rect width="1240" height="560" x="0" y="0" fill="url(&quot;#SvgjsLinearGradient1363&quot;)"></rect><path d="M576.188,448.73C593.038,447.231,605.541,435.233,614.475,420.867C624.121,405.357,632.596,387.227,624.671,370.771C615.881,352.519,596.445,341.203,576.188,341.366C556.19,341.527,539.284,354.365,529.038,371.54C518.495,389.213,513.233,411.355,523.96,428.917C534.363,445.948,556.309,450.498,576.188,448.73" fill="rgba(28, 83, 142, 0.4)" class="triangle-float1"></path><path d="M1147.03,33.788C1165.768,34.021,1185.625,28.594,1194.878,12.299C1204.046,-3.847,1198.026,-23.332,1188.519,-39.28C1179.292,-54.759,1165.045,-68.434,1147.03,-67.969C1129.592,-67.519,1117.839,-52.322,1109.094,-37.228C1100.318,-22.08,1092.951,-4.308,1101.2,11.134C1109.806,27.244,1128.767,33.561,1147.03,33.788" fill="rgba(28, 83, 142, 0.4)" class="triangle-float3"></path><path d="M509.505,150.755C535.103,151.733,563.485,147.71,576.718,125.776C590.256,103.337,583.511,74.399,568.557,52.877C555.575,34.194,532.254,29.284,509.505,29.046C486.192,28.802,460.851,31.989,448.277,51.621C434.908,72.494,437.611,99.871,450.636,120.96C463.023,141.016,485.949,149.855,509.505,150.755" fill="rgba(28, 83, 142, 0.4)" class="triangle-float3"></path><path d="M1159.992,448.287C1220.401,453.073,1287.428,440.981,1319.007,389.262C1351.539,335.982,1335.497,268.157,1302.23,215.333C1271.293,166.209,1218.044,136.344,1159.992,136.763C1102.674,137.177,1047.862,166.586,1021.268,217.362C996.266,265.098,1011.6,320.914,1039.349,367.107C1066.101,411.64,1108.203,444.184,1159.992,448.287" fill="rgba(28, 83, 142, 0.4)" class="triangle-float3"></path><path d="M330.229,335.375C365.065,334.703,387.753,303.328,405.472,273.328C423.625,242.594,443.205,205.87,424.777,175.3C406.652,145.233,365.306,147.037,330.229,148.512C298.61,149.841,265.373,155.926,248.516,182.71C230.698,211.021,234,246.839,249.786,276.331C266.609,307.762,294.586,336.062,330.229,335.375" fill="rgba(28, 83, 142, 0.4)" class="triangle-float2"></path><path d="M534.164,248.211C583.647,246.546,624.099,214.976,650.707,173.223C679.987,127.278,705.736,69.78,677.61,23.119C649.978,-22.722,587.457,-25.093,534.164,-20.118C490.439,-16.036,454.571,9.345,430.653,46.175C403.775,87.563,380.692,137.631,403.195,181.552C427.135,228.279,481.691,249.977,534.164,248.211" fill="rgba(28, 83, 142, 0.4)" class="triangle-float3"></path><path d="M409.261,219.115C453.109,216.603,490.286,191.047,513.312,153.647C537.713,114.013,550.125,65.904,529.175,24.342C506.248,-21.142,460.177,-51.343,409.261,-52.777C355.833,-54.281,303.8,-29.032,277.051,17.242C250.28,63.554,252.981,122.131,282.289,166.881C309.163,207.915,360.29,221.92,409.261,219.115" fill="rgba(28, 83, 142, 0.4)" class="triangle-float1"></path><path d="M586.627,584.446C607.665,585.559,629.656,576.822,639.405,558.146C648.652,540.432,639.457,520.239,629.048,503.182C619.212,487.065,605.466,472.92,586.627,471.663C565.557,470.258,543.153,478.201,533.123,496.784C523.44,514.723,532.088,535.631,542.708,553.031C552.759,569.498,567.362,583.427,586.627,584.446" fill="rgba(28, 83, 142, 0.4)" class="triangle-float3"></path><path d="M66.596,316.696C108.896,316.199,153.078,302.77,173.461,265.701C193.299,229.623,177.913,187.275,157.383,151.587C136.779,115.77,107.916,80.282,66.596,79.931C24.851,79.576,-5.66,114.083,-26.901,150.022C-48.637,186.8,-65.613,231.007,-44.712,268.266C-23.495,306.089,23.231,317.206,66.596,316.696" fill="rgba(28, 83, 142, 0.4)" class="triangle-float1"></path><path d="M762.624,418.57C782.676,419.062,799.095,404.389,809.024,386.961C818.84,369.731,821.891,348.85,812.203,331.548C802.311,313.882,782.853,303.249,762.624,304.095C743.67,304.887,728.602,318.639,719.741,335.413C711.503,351.008,711.92,369.104,720.004,384.779C728.91,402.05,743.198,418.094,762.624,418.57" fill="rgba(28, 83, 142, 0.4)" class="triangle-float1"></path></g><defs><mask id="SvgjsMask1362"><rect width="1240" height="560" fill="#ffffff"></rect></mask><linearGradient x1="13.71%" y1="-30.36%" x2="86.29%" y2="130.36%" gradientUnits="userSpaceOnUse" id="SvgjsLinearGradient1363"><stop stop-color="#0e2a47" offset="0"></stop><stop stop-color="rgba(71, 2, 148, 1)" offset="0.49"></stop><stop stop-color="rgba(71, 2, 148, 1)" offset="0.6"></stop><stop stop-color="#00459e" offset="1"></stop></linearGradient><style>
                @keyframes float1 {
                    0%{transform: translate(0, 0)}
                    50%{transform: translate(-10px, 0)}
                    100%{transform: translate(0, 0)}
                }

                .triangle-float1 {
                    animation: float1 5s infinite;
                }

                @keyframes float2 {
                    0%{transform: translate(0, 0)}
                    50%{transform: translate(-5px, -5px)}
                    100%{transform: translate(0, 0)}
                }

                .triangle-float2 {
                    animation: float2 4s infinite;
                }

                @keyframes float3 {
                    0%{transform: translate(0, 0)}
                    50%{transform: translate(0, -10px)}
                    100%{transform: translate(0, 0)}
                }

                .triangle-float3 {
                    animation: float3 6s infinite;
                }
            </style></defs></svg>