<svg xmlns="http://www.w3.org/2000/svg" version="1.1" xmlns:xlink="http://www.w3.org/1999/xlink" xmlns:svgjs="http://svgjs.dev/svgjs" width="1200" height="560" preserveAspectRatio="none" viewBox="0 0 1200 560"><g mask="url(&quot;#SvgjsMask1290&quot;)" fill="none"><rect width="1200" height="560" x="0" y="0" fill="url(&quot;#SvgjsLinearGradient1291&quot;)"></rect><path d="M121.49 72.56L186.45 110.06L186.45 185.06L121.49 222.56L56.54 185.06L56.54 110.06zM251.4 72.56L316.36 110.06L316.36 185.06L251.4 222.56L186.45 185.06L186.45 110.06zM186.45 410.06L251.4 447.56L251.4 522.56L186.45 560.06L121.49 522.56L121.49 447.56zM251.4 522.56L316.36 560.06L316.36 635.06L251.4 672.56L186.45 635.06L186.45 560.06zM316.36 -39.94L381.31 -2.44L381.31 72.56L316.36 110.06L251.4 72.56L251.4 -2.44zM381.31 72.56L446.26 110.06L446.26 185.06L381.31 222.56L316.36 185.06L316.36 110.06zM381.31 297.56L446.26 335.06L446.26 410.06L381.31 447.56L316.36 410.06L316.36 335.06zM316.36 410.06L381.31 447.56L381.31 522.56L316.36 560.06L251.4 522.56L251.4 447.56zM446.26 -39.94L511.22 -2.44L511.22 72.56L446.26 110.06L381.31 72.56L381.31 -2.44zM511.22 72.56L576.17 110.06L576.17 185.06L511.22 222.56L446.26 185.06L446.26 110.06zM511.22 522.56L576.17 560.06L576.17 635.06L511.22 672.56L446.26 635.06L446.26 560.06zM576.17 185.06L641.12 222.56L641.12 297.56L576.17 335.06L511.22 297.56L511.22 222.56zM771.03 72.56L835.99 110.06L835.99 185.06L771.03 222.56L706.08 185.06L706.08 110.06zM771.03 522.56L835.99 560.06L835.99 635.06L771.03 672.56L706.08 635.06L706.08 560.06zM835.98 -39.94L900.94 -2.44L900.94 72.56L835.98 110.06L771.03 72.56L771.03 -2.44zM900.94 297.56L965.89 335.06L965.89 410.06L900.94 447.56L835.98 410.06L835.98 335.06zM835.98 410.06L900.94 447.56L900.94 522.56L835.98 560.06L771.03 522.56L771.03 447.56zM900.94 522.56L965.89 560.06L965.89 635.06L900.94 672.56L835.98 635.06L835.98 560.06zM965.89 -39.94L1030.85 -2.44L1030.85 72.56L965.89 110.06L900.94 72.56L900.94 -2.44zM1030.85 72.56L1095.8 110.06L1095.8 185.06L1030.85 222.56L965.89 185.06L965.89 110.06zM1095.8 185.06L1160.75 222.56L1160.75 297.56L1095.8 335.06L1030.85 297.56L1030.85 222.56zM1160.75 297.56L1225.71 335.06L1225.71 410.06L1160.75 447.56L1095.8 410.06L1095.8 335.06zM1225.71 185.06L1290.66 222.56L1290.66 297.56L1225.71 335.06L1160.75 297.56L1160.75 222.56zM1290.66 297.56L1355.61 335.06L1355.61 410.06L1290.66 447.56L1225.71 410.06L1225.71 335.06zM1225.71 410.06L1290.66 447.56L1290.66 522.56L1225.71 560.06L1160.75 522.56L1160.75 447.56z" stroke="#03305d" stroke-width="2"></path><path d="M113.99 72.56 a7.5 7.5 0 1 0 15 0 a7.5 7.5 0 1 0 -15 0zM178.95 110.06 a7.5 7.5 0 1 0 15 0 a7.5 7.5 0 1 0 -15 0zM178.95 185.06 a7.5 7.5 0 1 0 15 0 a7.5 7.5 0 1 0 -15 0zM113.99 222.56 a7.5 7.5 0 1 0 15 0 a7.5 7.5 0 1 0 -15 0zM49.04 185.06 a7.5 7.5 0 1 0 15 0 a7.5 7.5 0 1 0 -15 0zM49.04 110.06 a7.5 7.5 0 1 0 15 0 a7.5 7.5 0 1 0 -15 0zM243.9 72.56 a7.5 7.5 0 1 0 15 0 a7.5 7.5 0 1 0 -15 0zM308.86 110.06 a7.5 7.5 0 1 0 15 0 a7.5 7.5 0 1 0 -15 0zM308.86 185.06 a7.5 7.5 0 1 0 15 0 a7.5 7.5 0 1 0 -15 0zM243.9 222.56 a7.5 7.5 0 1 0 15 0 a7.5 7.5 0 1 0 -15 0zM178.95 410.06 a7.5 7.5 0 1 0 15 0 a7.5 7.5 0 1 0 -15 0zM243.9 447.56 a7.5 7.5 0 1 0 15 0 a7.5 7.5 0 1 0 -15 0zM243.9 522.56 a7.5 7.5 0 1 0 15 0 a7.5 7.5 0 1 0 -15 0zM178.95 560.06 a7.5 7.5 0 1 0 15 0 a7.5 7.5 0 1 0 -15 0zM113.99 522.56 a7.5 7.5 0 1 0 15 0 a7.5 7.5 0 1 0 -15 0zM113.99 447.56 a7.5 7.5 0 1 0 15 0 a7.5 7.5 0 1 0 -15 0zM308.86 560.06 a7.5 7.5 0 1 0 15 0 a7.5 7.5 0 1 0 -15 0zM308.86 635.06 a7.5 7.5 0 1 0 15 0 a7.5 7.5 0 1 0 -15 0zM243.9 672.56 a7.5 7.5 0 1 0 15 0 a7.5 7.5 0 1 0 -15 0zM178.95 635.06 a7.5 7.5 0 1 0 15 0 a7.5 7.5 0 1 0 -15 0zM308.86 -39.94 a7.5 7.5 0 1 0 15 0 a7.5 7.5 0 1 0 -15 0zM373.81 -2.44 a7.5 7.5 0 1 0 15 0 a7.5 7.5 0 1 0 -15 0zM373.81 72.56 a7.5 7.5 0 1 0 15 0 a7.5 7.5 0 1 0 -15 0zM243.9 -2.44 a7.5 7.5 0 1 0 15 0 a7.5 7.5 0 1 0 -15 0zM438.76 110.06 a7.5 7.5 0 1 0 15 0 a7.5 7.5 0 1 0 -15 0zM438.76 185.06 a7.5 7.5 0 1 0 15 0 a7.5 7.5 0 1 0 -15 0zM373.81 222.56 a7.5 7.5 0 1 0 15 0 a7.5 7.5 0 1 0 -15 0zM373.81 297.56 a7.5 7.5 0 1 0 15 0 a7.5 7.5 0 1 0 -15 0zM438.76 335.06 a7.5 7.5 0 1 0 15 0 a7.5 7.5 0 1 0 -15 0zM438.76 410.06 a7.5 7.5 0 1 0 15 0 a7.5 7.5 0 1 0 -15 0zM373.81 447.56 a7.5 7.5 0 1 0 15 0 a7.5 7.5 0 1 0 -15 0zM308.86 410.06 a7.5 7.5 0 1 0 15 0 a7.5 7.5 0 1 0 -15 0zM308.86 335.06 a7.5 7.5 0 1 0 15 0 a7.5 7.5 0 1 0 -15 0zM373.81 522.56 a7.5 7.5 0 1 0 15 0 a7.5 7.5 0 1 0 -15 0zM438.76 -39.94 a7.5 7.5 0 1 0 15 0 a7.5 7.5 0 1 0 -15 0zM503.72 -2.44 a7.5 7.5 0 1 0 15 0 a7.5 7.5 0 1 0 -15 0zM503.72 72.56 a7.5 7.5 0 1 0 15 0 a7.5 7.5 0 1 0 -15 0zM568.67 110.06 a7.5 7.5 0 1 0 15 0 a7.5 7.5 0 1 0 -15 0zM568.67 185.06 a7.5 7.5 0 1 0 15 0 a7.5 7.5 0 1 0 -15 0zM503.72 222.56 a7.5 7.5 0 1 0 15 0 a7.5 7.5 0 1 0 -15 0zM503.72 522.56 a7.5 7.5 0 1 0 15 0 a7.5 7.5 0 1 0 -15 0zM568.67 560.06 a7.5 7.5 0 1 0 15 0 a7.5 7.5 0 1 0 -15 0zM568.67 635.06 a7.5 7.5 0 1 0 15 0 a7.5 7.5 0 1 0 -15 0zM503.72 672.56 a7.5 7.5 0 1 0 15 0 a7.5 7.5 0 1 0 -15 0zM438.76 635.06 a7.5 7.5 0 1 0 15 0 a7.5 7.5 0 1 0 -15 0zM438.76 560.06 a7.5 7.5 0 1 0 15 0 a7.5 7.5 0 1 0 -15 0zM633.62 222.56 a7.5 7.5 0 1 0 15 0 a7.5 7.5 0 1 0 -15 0zM633.62 297.56 a7.5 7.5 0 1 0 15 0 a7.5 7.5 0 1 0 -15 0zM568.67 335.06 a7.5 7.5 0 1 0 15 0 a7.5 7.5 0 1 0 -15 0zM503.72 297.56 a7.5 7.5 0 1 0 15 0 a7.5 7.5 0 1 0 -15 0zM763.53 72.56 a7.5 7.5 0 1 0 15 0 a7.5 7.5 0 1 0 -15 0zM828.49 110.06 a7.5 7.5 0 1 0 15 0 a7.5 7.5 0 1 0 -15 0zM828.49 185.06 a7.5 7.5 0 1 0 15 0 a7.5 7.5 0 1 0 -15 0zM763.53 222.56 a7.5 7.5 0 1 0 15 0 a7.5 7.5 0 1 0 -15 0zM698.58 185.06 a7.5 7.5 0 1 0 15 0 a7.5 7.5 0 1 0 -15 0zM698.58 110.06 a7.5 7.5 0 1 0 15 0 a7.5 7.5 0 1 0 -15 0zM763.53 522.56 a7.5 7.5 0 1 0 15 0 a7.5 7.5 0 1 0 -15 0zM828.49 560.06 a7.5 7.5 0 1 0 15 0 a7.5 7.5 0 1 0 -15 0zM828.49 635.06 a7.5 7.5 0 1 0 15 0 a7.5 7.5 0 1 0 -15 0zM763.53 672.56 a7.5 7.5 0 1 0 15 0 a7.5 7.5 0 1 0 -15 0zM698.58 635.06 a7.5 7.5 0 1 0 15 0 a7.5 7.5 0 1 0 -15 0zM698.58 560.06 a7.5 7.5 0 1 0 15 0 a7.5 7.5 0 1 0 -15 0zM828.48 -39.94 a7.5 7.5 0 1 0 15 0 a7.5 7.5 0 1 0 -15 0zM893.44 -2.44 a7.5 7.5 0 1 0 15 0 a7.5 7.5 0 1 0 -15 0zM893.44 72.56 a7.5 7.5 0 1 0 15 0 a7.5 7.5 0 1 0 -15 0zM828.48 110.06 a7.5 7.5 0 1 0 15 0 a7.5 7.5 0 1 0 -15 0zM763.53 -2.44 a7.5 7.5 0 1 0 15 0 a7.5 7.5 0 1 0 -15 0zM893.44 297.56 a7.5 7.5 0 1 0 15 0 a7.5 7.5 0 1 0 -15 0zM958.39 335.06 a7.5 7.5 0 1 0 15 0 a7.5 7.5 0 1 0 -15 0zM958.39 410.06 a7.5 7.5 0 1 0 15 0 a7.5 7.5 0 1 0 -15 0zM893.44 447.56 a7.5 7.5 0 1 0 15 0 a7.5 7.5 0 1 0 -15 0zM828.48 410.06 a7.5 7.5 0 1 0 15 0 a7.5 7.5 0 1 0 -15 0zM828.48 335.06 a7.5 7.5 0 1 0 15 0 a7.5 7.5 0 1 0 -15 0zM893.44 522.56 a7.5 7.5 0 1 0 15 0 a7.5 7.5 0 1 0 -15 0zM828.48 560.06 a7.5 7.5 0 1 0 15 0 a7.5 7.5 0 1 0 -15 0zM763.53 447.56 a7.5 7.5 0 1 0 15 0 a7.5 7.5 0 1 0 -15 0zM958.39 560.06 a7.5 7.5 0 1 0 15 0 a7.5 7.5 0 1 0 -15 0zM958.39 635.06 a7.5 7.5 0 1 0 15 0 a7.5 7.5 0 1 0 -15 0zM893.44 672.56 a7.5 7.5 0 1 0 15 0 a7.5 7.5 0 1 0 -15 0zM828.48 635.06 a7.5 7.5 0 1 0 15 0 a7.5 7.5 0 1 0 -15 0zM958.39 -39.94 a7.5 7.5 0 1 0 15 0 a7.5 7.5 0 1 0 -15 0zM1023.35 -2.44 a7.5 7.5 0 1 0 15 0 a7.5 7.5 0 1 0 -15 0zM1023.35 72.56 a7.5 7.5 0 1 0 15 0 a7.5 7.5 0 1 0 -15 0zM958.39 110.06 a7.5 7.5 0 1 0 15 0 a7.5 7.5 0 1 0 -15 0zM1088.3 110.06 a7.5 7.5 0 1 0 15 0 a7.5 7.5 0 1 0 -15 0zM1088.3 185.06 a7.5 7.5 0 1 0 15 0 a7.5 7.5 0 1 0 -15 0zM1023.35 222.56 a7.5 7.5 0 1 0 15 0 a7.5 7.5 0 1 0 -15 0zM958.39 185.06 a7.5 7.5 0 1 0 15 0 a7.5 7.5 0 1 0 -15 0zM1153.25 222.56 a7.5 7.5 0 1 0 15 0 a7.5 7.5 0 1 0 -15 0zM1153.25 297.56 a7.5 7.5 0 1 0 15 0 a7.5 7.5 0 1 0 -15 0zM1088.3 335.06 a7.5 7.5 0 1 0 15 0 a7.5 7.5 0 1 0 -15 0zM1023.35 297.56 a7.5 7.5 0 1 0 15 0 a7.5 7.5 0 1 0 -15 0zM1218.21 335.06 a7.5 7.5 0 1 0 15 0 a7.5 7.5 0 1 0 -15 0zM1218.21 410.06 a7.5 7.5 0 1 0 15 0 a7.5 7.5 0 1 0 -15 0zM1153.25 447.56 a7.5 7.5 0 1 0 15 0 a7.5 7.5 0 1 0 -15 0zM1088.3 410.06 a7.5 7.5 0 1 0 15 0 a7.5 7.5 0 1 0 -15 0zM1218.21 185.06 a7.5 7.5 0 1 0 15 0 a7.5 7.5 0 1 0 -15 0zM1283.16 222.56 a7.5 7.5 0 1 0 15 0 a7.5 7.5 0 1 0 -15 0zM1283.16 297.56 a7.5 7.5 0 1 0 15 0 a7.5 7.5 0 1 0 -15 0zM1348.11 335.06 a7.5 7.5 0 1 0 15 0 a7.5 7.5 0 1 0 -15 0zM1348.11 410.06 a7.5 7.5 0 1 0 15 0 a7.5 7.5 0 1 0 -15 0zM1283.16 447.56 a7.5 7.5 0 1 0 15 0 a7.5 7.5 0 1 0 -15 0zM1283.16 522.56 a7.5 7.5 0 1 0 15 0 a7.5 7.5 0 1 0 -15 0zM1218.21 560.06 a7.5 7.5 0 1 0 15 0 a7.5 7.5 0 1 0 -15 0zM1153.25 522.56 a7.5 7.5 0 1 0 15 0 a7.5 7.5 0 1 0 -15 0z" fill="#03305d"></path><path d="M39.96 188.68L63.35 202.18L63.35 229.18L39.96 242.68L16.58 229.18L16.58 202.18zM16.58 229.18L39.96 242.68L39.96 269.68L16.58 283.18L-6.8 269.68L-6.8 242.68zM39.96 350.68L63.35 364.18L63.35 391.18L39.96 404.68L16.58 391.18L16.58 364.18zM16.58 391.18L39.96 404.68L39.96 431.68L16.58 445.18L-6.8 431.68L-6.8 404.68zM63.35 -13.82L86.73 -0.32L86.73 26.68L63.35 40.18L39.96 26.68L39.96 -0.32zM63.35 67.18L86.73 80.68L86.73 107.68L63.35 121.18L39.96 107.68L39.96 80.68zM86.73 269.68L110.11 283.18L110.11 310.18L86.73 323.68L63.35 310.18L63.35 283.18zM86.73 512.68L110.11 526.18L110.11 553.18L86.73 566.68L63.35 553.18L63.35 526.18zM133.5 188.68L156.88 202.18L156.88 229.18L133.5 242.68L110.11 229.18L110.11 202.18zM110.11 391.18L133.5 404.68L133.5 431.68L110.11 445.18L86.73 431.68L86.73 404.68zM156.88 -13.82L180.26 -0.32L180.26 26.68L156.88 40.18L133.5 26.68L133.5 -0.32zM156.88 67.18L180.26 80.68L180.26 107.68L156.88 121.18L133.5 107.68L133.5 80.68zM180.26 188.68L203.65 202.18L203.65 229.18L180.26 242.68L156.88 229.18L156.88 202.18zM156.88 553.18L180.26 566.68L180.26 593.68L156.88 607.18L133.5 593.68L133.5 566.68zM227.03 26.68L250.41 40.18L250.41 67.18L227.03 80.68L203.65 67.18L203.65 40.18zM203.65 67.18L227.03 80.68L227.03 107.68L203.65 121.18L180.26 107.68L180.26 80.68zM227.03 188.68L250.41 202.18L250.41 229.18L227.03 242.68L203.65 229.18L203.65 202.18zM227.03 350.68L250.41 364.18L250.41 391.18L227.03 404.68L203.65 391.18L203.65 364.18zM203.65 391.18L227.03 404.68L227.03 431.68L203.65 445.18L180.26 431.68L180.26 404.68zM227.03 512.68L250.41 526.18L250.41 553.18L227.03 566.68L203.65 553.18L203.65 526.18zM203.65 553.18L227.03 566.68L227.03 593.68L203.65 607.18L180.26 593.68L180.26 566.68zM273.8 26.68L297.18 40.18L297.18 67.18L273.8 80.68L250.41 67.18L250.41 40.18zM250.41 310.18L273.8 323.68L273.8 350.68L250.41 364.18L227.03 350.68L227.03 323.68zM250.41 472.18L273.8 485.68L273.8 512.68L250.41 526.18L227.03 512.68L227.03 485.68zM273.8 512.68L297.18 526.18L297.18 553.18L273.8 566.68L250.41 553.18L250.41 526.18zM320.56 26.68L343.95 40.18L343.95 67.18L320.56 80.68L297.18 67.18L297.18 40.18zM320.56 107.68L343.95 121.18L343.95 148.18L320.56 161.68L297.18 148.18L297.18 121.18zM297.18 391.18L320.56 404.68L320.56 431.68L297.18 445.18L273.8 431.68L273.8 404.68zM343.95 148.18L367.33 161.68L367.33 188.68L343.95 202.18L320.56 188.68L320.56 161.68zM367.33 269.68L390.71 283.18L390.71 310.18L367.33 323.68L343.95 310.18L343.95 283.18zM367.33 431.68L390.71 445.18L390.71 472.18L367.33 485.68L343.95 472.18L343.95 445.18zM390.71 229.18L414.1 242.68L414.1 269.68L390.71 283.18L367.33 269.68L367.33 242.68zM414.1 269.68L437.48 283.18L437.48 310.18L414.1 323.68L390.71 310.18L390.71 283.18zM390.71 310.18L414.1 323.68L414.1 350.68L390.71 364.18L367.33 350.68L367.33 323.68zM414.1 350.68L437.48 364.18L437.48 391.18L414.1 404.68L390.71 391.18L390.71 364.18zM414.1 431.68L437.48 445.18L437.48 472.18L414.1 485.68L390.71 472.18L390.71 445.18zM437.48 67.18L460.86 80.68L460.86 107.68L437.48 121.18L414.1 107.68L414.1 80.68zM460.86 107.68L484.25 121.18L484.25 148.18L460.86 161.68L437.48 148.18L437.48 121.18zM460.86 188.68L484.25 202.18L484.25 229.18L460.86 242.68L437.48 229.18L437.48 202.18zM460.86 512.68L484.25 526.18L484.25 553.18L460.86 566.68L437.48 553.18L437.48 526.18zM507.63 107.68L531.01 121.18L531.01 148.18L507.63 161.68L484.25 148.18L484.25 121.18zM484.25 391.18L507.63 404.68L507.63 431.68L484.25 445.18L460.86 431.68L460.86 404.68zM484.25 553.18L507.63 566.68L507.63 593.68L484.25 607.18L460.86 593.68L460.86 566.68zM531.01 67.18L554.4 80.68L554.4 107.68L531.01 121.18L507.63 107.68L507.63 80.68zM554.4 350.68L577.78 364.18L577.78 391.18L554.4 404.68L531.01 391.18L531.01 364.18zM531.01 472.18L554.4 485.68L554.4 512.68L531.01 526.18L507.63 512.68L507.63 485.68zM554.4 512.68L577.78 526.18L577.78 553.18L554.4 566.68L531.01 553.18L531.01 526.18zM601.16 107.68L624.55 121.18L624.55 148.18L601.16 161.68L577.78 148.18L577.78 121.18zM577.78 229.18L601.16 242.68L601.16 269.68L577.78 283.18L554.4 269.68L554.4 242.68zM601.16 269.68L624.55 283.18L624.55 310.18L601.16 323.68L577.78 310.18L577.78 283.18zM577.78 553.18L601.16 566.68L601.16 593.68L577.78 607.18L554.4 593.68L554.4 566.68zM624.55 -13.82L647.93 -0.32L647.93 26.68L624.55 40.18L601.16 26.68L601.16 -0.32zM647.93 269.68L671.31 283.18L671.31 310.18L647.93 323.68L624.55 310.18L624.55 283.18zM624.55 472.18L647.93 485.68L647.93 512.68L624.55 526.18L601.16 512.68L601.16 485.68zM694.7 269.68L718.08 283.18L718.08 310.18L694.7 323.68L671.31 310.18L671.31 283.18zM694.7 350.68L718.08 364.18L718.08 391.18L694.7 404.68L671.31 391.18L671.31 364.18zM671.31 472.18L694.7 485.68L694.7 512.68L671.31 526.18L647.93 512.68L647.93 485.68zM741.46 107.68L764.85 121.18L764.85 148.18L741.46 161.68L718.08 148.18L718.08 121.18zM718.08 391.18L741.46 404.68L741.46 431.68L718.08 445.18L694.7 431.68L694.7 404.68zM718.08 472.18L741.46 485.68L741.46 512.68L718.08 526.18L694.7 512.68L694.7 485.68zM718.08 553.18L741.46 566.68L741.46 593.68L718.08 607.18L694.7 593.68L694.7 566.68zM764.85 472.18L788.23 485.68L788.23 512.68L764.85 526.18L741.46 512.68L741.46 485.68zM788.23 512.68L811.61 526.18L811.61 553.18L788.23 566.68L764.85 553.18L764.85 526.18zM835 188.68L858.38 202.18L858.38 229.18L835 242.68L811.61 229.18L811.61 202.18zM835 512.68L858.38 526.18L858.38 553.18L835 566.68L811.61 553.18L811.61 526.18zM858.38 67.18L881.76 80.68L881.76 107.68L858.38 121.18L835 107.68L835 80.68zM881.76 188.68L905.15 202.18L905.15 229.18L881.76 242.68L858.38 229.18L858.38 202.18zM858.38 310.18L881.76 323.68L881.76 350.68L858.38 364.18L835 350.68L835 323.68zM858.38 472.18L881.76 485.68L881.76 512.68L858.38 526.18L835 512.68L835 485.68zM881.76 512.68L905.15 526.18L905.15 553.18L881.76 566.68L858.38 553.18L858.38 526.18zM905.15 -13.82L928.53 -0.32L928.53 26.68L905.15 40.18L881.76 26.68L881.76 -0.32zM928.53 431.68L951.91 445.18L951.91 472.18L928.53 485.68L905.15 472.18L905.15 445.18zM905.15 553.18L928.53 566.68L928.53 593.68L905.15 607.18L881.76 593.68L881.76 566.68zM951.91 67.18L975.3 80.68L975.3 107.68L951.91 121.18L928.53 107.68L928.53 80.68zM975.3 107.68L998.68 121.18L998.68 148.18L975.3 161.68L951.91 148.18L951.91 121.18zM975.3 269.68L998.68 283.18L998.68 310.18L975.3 323.68L951.91 310.18L951.91 283.18zM975.3 350.68L998.68 364.18L998.68 391.18L975.3 404.68L951.91 391.18L951.91 364.18zM975.3 512.68L998.68 526.18L998.68 553.18L975.3 566.68L951.91 553.18L951.91 526.18zM998.68 67.18L1022.06 80.68L1022.06 107.68L998.68 121.18L975.3 107.68L975.3 80.68zM1022.06 269.68L1045.45 283.18L1045.45 310.18L1022.06 323.68L998.68 310.18L998.68 283.18zM998.68 310.18L1022.06 323.68L1022.06 350.68L998.68 364.18L975.3 350.68L975.3 323.68zM1068.83 188.68L1092.21 202.18L1092.21 229.18L1068.83 242.68L1045.45 229.18L1045.45 202.18zM1068.83 269.68L1092.21 283.18L1092.21 310.18L1068.83 323.68L1045.45 310.18L1045.45 283.18zM1045.45 310.18L1068.83 323.68L1068.83 350.68L1045.45 364.18L1022.06 350.68L1022.06 323.68zM1092.21 148.18L1115.6 161.68L1115.6 188.68L1092.21 202.18L1068.83 188.68L1068.83 161.68zM1115.6 188.68L1138.98 202.18L1138.98 229.18L1115.6 242.68L1092.21 229.18L1092.21 202.18zM1115.6 350.68L1138.98 364.18L1138.98 391.18L1115.6 404.68L1092.21 391.18L1092.21 364.18zM1162.36 26.68L1185.75 40.18L1185.75 67.18L1162.36 80.68L1138.98 67.18L1138.98 40.18zM1162.36 188.68L1185.75 202.18L1185.75 229.18L1162.36 242.68L1138.98 229.18L1138.98 202.18zM1138.98 229.18L1162.36 242.68L1162.36 269.68L1138.98 283.18L1115.6 269.68L1115.6 242.68zM1162.36 269.68L1185.75 283.18L1185.75 310.18L1162.36 323.68L1138.98 310.18L1138.98 283.18zM1162.36 350.68L1185.75 364.18L1185.75 391.18L1162.36 404.68L1138.98 391.18L1138.98 364.18zM1185.75 -13.82L1209.13 -0.32L1209.13 26.68L1185.75 40.18L1162.36 26.68L1162.36 -0.32zM1209.13 26.68L1232.51 40.18L1232.51 67.18L1209.13 80.68L1185.75 67.18L1185.75 40.18zM1209.13 431.68L1232.51 445.18L1232.51 472.18L1209.13 485.68L1185.75 472.18L1185.75 445.18zM1185.75 472.18L1209.13 485.68L1209.13 512.68L1185.75 526.18L1162.36 512.68L1162.36 485.68z" stroke="rgba(6, 80, 156, 0.93)" stroke-width="2"></path></g><defs><mask id="SvgjsMask1290"><rect width="1200" height="560" fill="#ffffff"></rect></mask><linearGradient x1="86.67%" y1="128.57%" x2="13.33%" y2="-28.57%" gradientUnits="userSpaceOnUse" id="SvgjsLinearGradient1291"><stop stop-color="#0e2a47" offset="0"></stop><stop stop-color="rgba(0, 6, 28, 1)" offset="1"></stop></linearGradient></defs></svg>