<svg xmlns="http://www.w3.org/2000/svg" version="1.1" xmlns:xlink="http://www.w3.org/1999/xlink" xmlns:svgjs="http://svgjs.dev/svgjs" width="1920" height="910" preserveAspectRatio="none" viewBox="0 0 1920 910"><g mask="url(&quot;#SvgjsMask5311&quot;)" fill="none"><rect width="1920" height="910" x="0" y="0" fill="url(&quot;#SvgjsLinearGradient5312&quot;)"></rect><path d="M41 910L951 0L1393.5 0L483.5 910z" fill="url(&quot;#SvgjsLinearGradient5313&quot;)"></path><path d="M689.6 910L1599.6 0L2178.6 0L1268.6 910z" fill="url(&quot;#SvgjsLinearGradient5313&quot;)"></path><path d="M1895 910L985 0L458.5 0L1368.5 910z" fill="url(&quot;#SvgjsLinearGradient5314&quot;)"></path><path d="M1285.4 910L375.4000000000001 0L-61.09999999999991 0L848.9000000000001 910z" fill="url(&quot;#SvgjsLinearGradient5314&quot;)"></path><path d="M1164.0347694428165 910L1920 154.03476944281658L1920 910z" fill="url(&quot;#SvgjsLinearGradient5313&quot;)"></path><path d="M0 910L755.9652305571834 910L 0 154.03476944281658z" fill="url(&quot;#SvgjsLinearGradient5314&quot;)"></path></g><defs><mask id="SvgjsMask5311"><rect width="1920" height="910" fill="#ffffff"></rect></mask><linearGradient x1="86.85%" y1="127.75%" x2="13.15%" y2="-27.75%" gradientUnits="userSpaceOnUse" id="SvgjsLinearGradient5312"><stop stop-color="rgba(43, 0, 38, 1)" offset="0"></stop><stop stop-color="rgba(14, 42, 71, 1)" offset="0.6"></stop><stop stop-color="rgba(43, 0, 38, 1)" offset="0.98"></stop></linearGradient><linearGradient x1="0%" y1="100%" x2="100%" y2="0%" id="SvgjsLinearGradient5313"><stop stop-color="rgba(15, 70, 185, 0.2)" offset="0"></stop><stop stop-opacity="0" stop-color="rgba(15, 70, 185, 0.2)" offset="0.66"></stop></linearGradient><linearGradient x1="100%" y1="100%" x2="0%" y2="0%" id="SvgjsLinearGradient5314"><stop stop-color="rgba(15, 70, 185, 0.2)" offset="0"></stop><stop stop-opacity="0" stop-color="rgba(15, 70, 185, 0.2)" offset="0.66"></stop></linearGradient></defs></svg>